<?xml version="1.0" standalone="no"?>
<!DOCTYPE svg PUBLIC "-//W3C//DTD SVG 20010904//EN"
 "http://www.w3.org/TR/2001/REC-SVG-20010904/DTD/svg10.dtd">
<svg version="1.0" xmlns="http://www.w3.org/2000/svg"
 width="960.000000pt" height="540.000000pt" viewBox="0 0 960.000000 540.000000"
 preserveAspectRatio="xMidYMid meet">
<metadata>
Created by potrace 1.13, written by Peter Selinger 2001-2015
</metadata>
<g transform="translate(0.000000,540.000000) scale(0.100000,-0.100000)"
fill="#000000" stroke="none">
<path d="M3655 4800 c-3 -5 15 -32 41 -60 44 -47 46 -51 30 -68 -9 -10 -13
-22 -9 -25 3 -4 2 -7 -4 -7 -12 0 -23 -55 -13 -69 3 -6 37 -26 74 -46 71 -37
104 -72 146 -156 35 -69 79 -119 310 -350 133 -133 225 -233 240 -262 24 -46
24 -46 5 -67 -15 -17 -21 -40 -24 -100 -3 -72 -1 -81 21 -103 13 -13 30 -26
36 -28 23 -8 16 -455 -7 -483 -5 -6 -11 -72 -13 -146 l-3 -135 -46 -76 c-108
-175 -212 -415 -186 -431 41 -25 41 -23 23 -80 -10 -29 -42 -105 -71 -168 -60
-130 -67 -152 -90 -270 -9 -47 -23 -103 -30 -125 -7 -22 -18 -74 -24 -115 -6
-41 -22 -97 -36 -125 -45 -91 -77 -186 -71 -211 9 -36 44 -53 123 -60 62 -6
73 -4 90 13 19 19 20 31 17 146 l-4 126 40 83 c22 45 40 91 40 102 0 12 9 35
21 51 39 58 67 121 89 201 15 58 37 106 74 163 29 44 61 98 71 120 17 38 20
40 74 46 129 13 249 44 350 90 56 26 120 49 140 52 l38 5 37 -88 c20 -49 55
-116 76 -150 21 -34 53 -104 70 -155 18 -54 51 -124 77 -163 24 -37 46 -82 49
-98 2 -16 24 -68 49 -115 42 -79 45 -89 34 -120 -12 -37 -5 -86 18 -122 11
-17 14 -37 9 -68 -3 -25 -1 -53 4 -63 20 -37 128 -52 179 -25 48 24 53 65 20
147 -11 29 -29 75 -39 102 -11 27 -26 56 -34 65 -8 9 -23 57 -34 106 -49 225
-102 390 -166 520 -54 110 -96 234 -96 284 0 6 14 11 30 11 17 0 30 2 30 5 0
27 -160 501 -191 565 -46 96 -126 209 -149 210 -13 0 -16 18 -18 101 -1 55 1
105 4 111 4 5 17 -9 31 -31 39 -65 102 -88 162 -57 54 28 61 93 25 258 -8 37
-14 89 -14 116 0 27 -11 80 -24 118 -22 62 -30 73 -83 113 -32 23 -87 56 -123
73 l-65 29 25 19 c14 11 28 20 32 20 3 0 19 33 34 73 34 86 39 210 11 263 -24
46 -85 116 -120 137 -47 29 -139 20 -197 -19 -53 -35 -106 -110 -116 -162 -16
-81 24 -238 74 -295 14 -16 14 -19 2 -27 -25 -16 -48 -11 -82 19 -18 15 -52
40 -74 54 -23 14 -52 40 -64 57 -12 18 -64 65 -114 105 -146 119 -166 136
-257 212 -47 39 -120 105 -162 146 -66 65 -76 80 -82 120 -4 27 -2 67 5 97 7
28 10 53 7 56 -9 9 -46 -38 -52 -67 -10 -46 -43 -37 -118 31 -69 64 -72 66
-82 50z"/>
</g>
</svg>
